<svg width="35" height="40" viewBox="0 0 35 40" fill="none" xmlns="http://www.w3.org/2000/svg">
<path d="M16.2366 5.30286C17.71 5.30286 18.9044 4.11577 18.9044 2.65143C18.9044 1.18709 17.71 0 16.2366 0C14.7633 0 13.5688 1.18709 13.5688 2.65143C13.5688 4.11577 14.7633 5.30286 16.2366 5.30286Z" fill="#FF8200"/>
<path d="M3.54172 18.3314C5.49776 18.3314 7.08344 16.7555 7.08344 14.8114C7.08344 12.8674 5.49776 11.2914 3.54172 11.2914C1.58568 11.2914 0 12.8674 0 14.8114C0 16.7555 1.58568 18.3314 3.54172 18.3314Z" fill="#2D5FAA"/>
<path d="M13.5229 28.9829C15.479 28.9829 17.0646 27.4069 17.0646 25.4629C17.0646 23.5188 15.479 21.9429 13.5229 21.9429C11.5669 21.9429 9.9812 23.5188 9.9812 25.4629C9.9812 27.4069 11.5669 28.9829 13.5229 28.9829Z" fill="#2D5FAA"/>
<path d="M23.8722 4.93714C25.244 4.93714 26.356 3.83193 26.356 2.46857C26.356 1.10522 25.244 0 23.8722 0C22.5005 0 21.3884 1.10522 21.3884 2.46857C21.3884 3.83193 22.5005 4.93714 23.8722 4.93714Z" fill="#FF8200"/>
<path d="M31.7836 4.93714C33.1554 4.93714 34.2674 3.83193 34.2674 2.46857C34.2674 1.10522 33.1554 0 31.7836 0C30.4118 0 29.2998 1.10522 29.2998 2.46857C29.2998 3.83193 30.4118 4.93714 31.7836 4.93714Z" fill="#FF8200"/>
<path d="M23.8722 23.0857C25.244 23.0857 26.356 21.9805 26.356 20.6171C26.356 19.2538 25.244 18.1486 23.8722 18.1486C22.5005 18.1486 21.3884 19.2538 21.3884 20.6171C21.3884 21.9805 22.5005 23.0857 23.8722 23.0857Z" fill="#FF8200"/>
<path d="M13.5689 39.9543C15.5504 39.9543 17.1566 38.3579 17.1566 36.3886C17.1566 34.4193 15.5504 32.8229 13.5689 32.8229C11.5875 32.8229 9.9812 34.4193 9.9812 36.3886C9.9812 38.3579 11.5875 39.9543 13.5689 39.9543Z" fill="#2D5FAA"/>
<path d="M26.218 10.4228C25.712 9.23426 24.4241 8.59426 23.1822 8.95997C22.3083 9.23426 21.6643 9.91997 21.4803 10.7885C21.3883 11.1085 21.2044 11.3828 20.9744 11.6114C19.5485 12.6171 17.7546 12.8 16.1448 12.16C15.8688 12.0685 15.5468 11.9314 15.2708 11.7485C15.1328 11.6571 14.9489 11.6114 14.8109 11.52H14.7189C13.9369 11.2 13.063 11.2 12.2351 11.52C10.3952 12.2514 9.52128 14.2628 10.2112 16.0914C10.9012 17.8285 12.833 18.7428 14.6269 18.1485C15.3628 17.92 16.0068 17.4171 16.4207 16.7771C16.5127 16.64 16.6047 16.4571 16.6967 16.32C16.6967 16.32 18.9505 12.5714 21.8023 13.0285C22.0323 13.12 22.2623 13.2114 22.4923 13.3485C23.1362 13.8057 23.9181 13.8971 24.6541 13.6685C25.942 13.2571 26.6779 11.84 26.264 10.56C26.218 10.5143 26.218 10.4685 26.218 10.4228Z" fill="url(#paint0_linear_7264_104366)"/>
<defs>
<linearGradient id="paint0_linear_7264_104366" x1="13.8901" y1="17.1008" x2="25.0143" y2="5.90329" gradientUnits="userSpaceOnUse">
<stop stop-color="#2D5FAA"/>
<stop offset="0.1" stop-color="#3061A0"/>
<stop offset="0.27" stop-color="#4A658A"/>
<stop offset="0.49" stop-color="#756B66"/>
<stop offset="0.75" stop-color="#AF7436"/>
<stop offset="1" stop-color="#FF8200"/>
</linearGradient>
</defs>
</svg>
